<?xml version="1.0" encoding="us-ascii" standalone="no"?><svg xmlns="http://www.w3.org/2000/svg" xmlns:xlink="http://www.w3.org/1999/xlink" contentStyleType="text/css" height="526px" preserveAspectRatio="none" style="width:691px;height:526px;background:#FFFFFF;" version="1.1" viewBox="0 0 691 526" width="691px" zoomAndPan="magnify"><defs/><g><!--class notebook--><g id="elem_notebook"><rect codeLine="9" fill="#F1F1F1" height="505.8438" id="notebook" rx="2.5" ry="2.5" style="stroke:#181818;stroke-width:0.5;" width="670" x="7" y="7"/><ellipse cx="308.25" cy="23" fill="#ADD1B2" rx="11" ry="11" style="stroke:#181818;stroke-width:1.0;"/><path d="M311.0156,18.875 Q311.1719,18.6563 311.3594,18.5469 Q311.5469,18.4375 311.7656,18.4375 Q312.1406,18.4375 312.375,18.6953 Q312.6094,18.9531 312.6094,19.5625 L312.6094,21.0156 Q312.6094,21.625 312.375,21.8906 Q312.1406,22.1563 311.7656,22.1563 Q311.4219,22.1563 311.2188,21.9531 Q311.0156,21.7656 310.9063,21.25 Q310.8594,20.8906 310.6719,20.7031 Q310.3438,20.3281 309.7344,20.1094 Q309.125,19.8906 308.5,19.8906 Q307.7344,19.8906 307.1016,20.2188 Q306.4688,20.5469 305.9766,21.2969 Q305.4844,22.0469 305.4844,23.0781 L305.4844,24.1719 Q305.4844,25.4063 306.375,26.2266 Q307.2656,27.0469 308.8594,27.0469 Q309.7969,27.0469 310.4531,26.7969 Q310.8438,26.6406 311.2656,26.2031 Q311.5313,25.9375 311.6797,25.8594 Q311.8281,25.7813 312.0313,25.7813 Q312.3594,25.7813 312.6172,26.0391 Q312.875,26.2969 312.875,26.6406 Q312.875,26.9844 312.5313,27.3906 Q312.0313,27.9688 311.2344,28.2969 Q310.1563,28.75 308.8594,28.75 Q307.3438,28.75 306.1406,28.125 Q305.1563,27.625 304.4688,26.5547 Q303.7813,25.4844 303.7813,24.2031 L303.7813,23.0469 Q303.7813,21.7188 304.3984,20.5703 Q305.0156,19.4219 306.1094,18.8047 Q307.2031,18.1875 308.4375,18.1875 Q309.1719,18.1875 309.8203,18.3516 Q310.4688,18.5156 311.0156,18.875 Z " fill="#000000"/><text fill="#000000" font-family="sans-serif" font-size="14" lengthAdjust="spacing" textLength="59" x="328.75" y="28.7285">notebook</text><line style="stroke:#181818;stroke-width:0.5;" x1="8" x2="676" y1="39" y2="39"/><text fill="#000000" font-family="sans-serif" font-size="14" lengthAdjust="spacing" textLength="99" x="13" y="57.5332">-height : double</text><text fill="#000000" font-family="sans-serif" font-size="14" lengthAdjust="spacing" textLength="92" x="13" y="75.1426">-width : double</text><text fill="#000000" font-family="sans-serif" font-size="14" lengthAdjust="spacing" textLength="71" x="13" y="92.752">-pages : int</text><text fill="#000000" font-family="sans-serif" font-size="14" lengthAdjust="spacing" textLength="158" x="13" y="110.3613">-coverDesign : std::string</text><text fill="#000000" font-family="sans-serif" font-size="14" lengthAdjust="spacing" textLength="146" x="13" y="127.9707">-coverType : std::string</text><text fill="#000000" font-family="sans-serif" font-size="14" lengthAdjust="spacing" textLength="119" x="13" y="145.5801">-format : std::string</text><text fill="#000000" font-family="sans-serif" font-size="14" lengthAdjust="spacing" textLength="150" x="13" y="163.1895">-paperColor : std::string</text><text fill="#000000" font-family="sans-serif" font-size="14" lengthAdjust="spacing" textLength="148" x="13" y="180.7988">-paperType : std::string</text><line style="stroke:#181818;stroke-width:0.5;" x1="8" x2="676" y1="187.875" y2="187.875"/><text fill="#000000" font-family="sans-serif" font-size="14" lengthAdjust="spacing" textLength="658" x="13" y="206.4082">+notebook(double w, double h, int p, std::string pt, std::string f, std::string pc, std::string ct, std::string cd)</text><text fill="#000000" font-family="sans-serif" font-size="14" lengthAdjust="spacing" textLength="171" x="13" y="224.0176">+getHeight() : double const</text><text fill="#000000" font-family="sans-serif" font-size="14" lengthAdjust="spacing" textLength="167" x="13" y="241.627">+getWidth() : double const</text><text fill="#000000" font-family="sans-serif" font-size="14" lengthAdjust="spacing" textLength="143" x="13" y="259.2363">+getPages() : int const</text><text fill="#000000" font-family="sans-serif" font-size="14" lengthAdjust="spacing" textLength="232" x="13" y="276.8457">+getCoverDesign() : std::string const</text><text fill="#000000" font-family="sans-serif" font-size="14" lengthAdjust="spacing" textLength="220" x="13" y="294.4551">+getCoverType() : std::string const</text><text fill="#000000" font-family="sans-serif" font-size="14" lengthAdjust="spacing" textLength="195" x="13" y="312.0645">+getFormat() : std::string const</text><text fill="#000000" font-family="sans-serif" font-size="14" lengthAdjust="spacing" textLength="222" x="13" y="329.6738">+getPaperColor() : std::string const</text><text fill="#000000" font-family="sans-serif" font-size="14" lengthAdjust="spacing" textLength="220" x="13" y="347.2832">+getPaperType() : std::string const</text><text fill="#000000" font-family="sans-serif" font-size="14" lengthAdjust="spacing" textLength="179" x="13" y="364.8926">+toString() : std::string const</text><text fill="#000000" font-family="sans-serif" font-size="14" lengthAdjust="spacing" textLength="238" x="13" y="382.502">+setCoverDesign(std::string cd) : void</text><text fill="#000000" font-family="sans-serif" font-size="14" lengthAdjust="spacing" textLength="222" x="13" y="400.1113">+setCoverType(std::string ct) : void</text><text fill="#000000" font-family="sans-serif" font-size="14" lengthAdjust="spacing" textLength="190" x="13" y="417.7207">+setFormat(std::string f) : void</text><text fill="#000000" font-family="sans-serif" font-size="14" lengthAdjust="spacing" textLength="170" x="13" y="435.3301">+setHeight(double h) : void</text><text fill="#000000" font-family="sans-serif" font-size="14" lengthAdjust="spacing" textLength="142" x="13" y="452.9395">+setPages(int p) : void</text><text fill="#000000" font-family="sans-serif" font-size="14" lengthAdjust="spacing" textLength="228" x="13" y="470.5488">+setPaperColor(std::string pc) : void</text><text fill="#000000" font-family="sans-serif" font-size="14" lengthAdjust="spacing" textLength="223" x="13" y="488.1582">+setPaperType(std::string pt) : void</text><text fill="#000000" font-family="sans-serif" font-size="14" lengthAdjust="spacing" textLength="167" x="13" y="505.7676">+setWidth(double w) : void</text></g><!--SRC=[XLF1JiCm33tJh_1jcnWQvzsc8iGkC6b8dDFKf65T4YNU9a3yEsdQR4qtHa-nttEUxRwuZLI6MRQ5l6REBOYiB7Q4IwxLMduXt6V-cutWfVX0JWv6iopZ3HMK9Yoqti1tTdCRWt6fTqMDS9X2Twgc81M1cOAZSZvtNa09C9J6xmEOfp4Vq7avyQ82wGcbg6WyWNdKyuqxQi4tML9r0RkhGjKnxpE7XjfBDEKh9j25ycQ0M6kQR9lp4TTxj0_ef50-rsinOg-V1i-GTsstZ8RfHZC_tHUKaw5Fa-Nnwckanw1oZR5Y1cskQst_PLqJypk9zvoDQcBnsRIar-7ufxHBrp7u_xvehsNPuuKMKzUah6uXYUzIHcUdQDqKRFqGp3m4ZcjCJNo1TjQa6JJPcZO-eoFsasNTIrog2gqafZY2nPgHzFkgf6dVPijP265H1EWofo4zeoCiGVTUTlOB]--></g></svg>