<?xml version="1.0" encoding="UTF-8" standalone="no"?><svg xmlns="http://www.w3.org/2000/svg" xmlns:xlink="http://www.w3.org/1999/xlink" contentStyleType="text/css" height="199px" preserveAspectRatio="none" style="width:434px;height:199px;background:#003153;" version="1.1" viewBox="0 0 434 199" width="434px" zoomAndPan="magnify"><defs/><g><!--MD5=[79351a9d76a9db85ee2bda395c305102]
class invalid_day--><g id="elem_invalid_day"><rect codeLine="8" fill="#003153" height="60.2969" id="invalid_day" rx="2.5" ry="2.5" style="stroke:#D9D3D0;stroke-width:1.0;" width="178" x="14.5" y="12"/><ellipse cx="63.25" cy="26" fill="#003153" rx="9" ry="9" style="stroke:#D9D3D0;stroke-width:1.0;"/><path d="M66.6563,27.9688 C65.9375,28.6406 64.6406,29.8125 62.8906,29.8125 C60.6719,29.8125 59.7031,27.875 59.7031,25.9219 C59.7031,23.5313 61.1875,22.2656 62.8281,22.2656 C64.8438,22.2656 65.0625,23.7813 65.2344,24.875 L66.6563,24.6875 C66.5625,24.1094 66.4844,23.5313 66.4844,22.5625 C66.4844,21.8906 66.5313,21.3438 66.5625,20.9219 L65.1563,20.9219 L65.0469,21.875 C64.4531,21.3438 63.8125,20.7969 62.5938,20.7969 C60.5469,20.7969 58.1406,22.625 58.1406,25.9375 C58.1406,28.875 59.9063,31.2656 62.9063,31.2656 C65.3438,31.2656 67.0469,29.6406 67.6406,29.0625 L66.6563,27.9688 Z " fill="#D9D3D0"/><text fill="#D9D3D0" font-family="Verdana" font-size="14" lengthAdjust="spacing" textLength="73" x="80.75" y="30.8467">invalid_day</text><line style="stroke:#D9D3D0;stroke-width:1.0;" x1="15.5" x2="191.5" y1="40" y2="40"/><line style="stroke:#D9D3D0;stroke-width:1.0;" x1="15.5" x2="191.5" y1="48" y2="48"/><ellipse cx="25.5" cy="61.6484" fill="#003153" rx="3" ry="3" style="stroke:#D9D3D0;stroke-width:1.0;"/><text fill="#D9D3D0" font-family="Verdana" font-size="14" lengthAdjust="spacing" textLength="154" x="32.5" y="64.9951">invalid_day(std::string)</text></g><!--MD5=[df708b84a00bafc09e010262bc69f29d]
class invalid_month--><g id="elem_invalid_month"><rect codeLine="13" fill="#003153" height="60.2969" id="invalid_month" rx="2.5" ry="2.5" style="stroke:#D9D3D0;stroke-width:1.0;" width="199" x="228" y="12"/><ellipse cx="276.75" cy="26" fill="#003153" rx="9" ry="9" style="stroke:#D9D3D0;stroke-width:1.0;"/><path d="M280.1563,27.9688 C279.4375,28.6406 278.1406,29.8125 276.3906,29.8125 C274.1719,29.8125 273.2031,27.875 273.2031,25.9219 C273.2031,23.5313 274.6875,22.2656 276.3281,22.2656 C278.3438,22.2656 278.5625,23.7813 278.7344,24.875 L280.1563,24.6875 C280.0625,24.1094 279.9844,23.5313 279.9844,22.5625 C279.9844,21.8906 280.0313,21.3438 280.0625,20.9219 L278.6563,20.9219 L278.5469,21.875 C277.9531,21.3438 277.3125,20.7969 276.0938,20.7969 C274.0469,20.7969 271.6406,22.625 271.6406,25.9375 C271.6406,28.875 273.4063,31.2656 276.4063,31.2656 C278.8438,31.2656 280.5469,29.6406 281.1406,29.0625 L280.1563,27.9688 Z " fill="#D9D3D0"/><text fill="#D9D3D0" font-family="Verdana" font-size="14" lengthAdjust="spacing" textLength="94" x="294.25" y="30.8467">invalid_month</text><line style="stroke:#D9D3D0;stroke-width:1.0;" x1="229" x2="426" y1="40" y2="40"/><line style="stroke:#D9D3D0;stroke-width:1.0;" x1="229" x2="426" y1="48" y2="48"/><ellipse cx="239" cy="61.6484" fill="#003153" rx="3" ry="3" style="stroke:#D9D3D0;stroke-width:1.0;"/><text fill="#D9D3D0" font-family="Verdana" font-size="14" lengthAdjust="spacing" textLength="175" x="246" y="64.9951">invalid_month(std::string)</text></g><!--MD5=[995255b2ee63992db5be8ee90fccfbe5]
class invalid_year--><g id="elem_invalid_year"><rect codeLine="18" fill="#003153" height="60.2969" id="invalid_year" rx="2.5" ry="2.5" style="stroke:#D9D3D0;stroke-width:1.0;" width="183" x="12" y="132"/><ellipse cx="60.75" cy="146" fill="#003153" rx="9" ry="9" style="stroke:#D9D3D0;stroke-width:1.0;"/><path d="M64.1563,147.9688 C63.4375,148.6406 62.1406,149.8125 60.3906,149.8125 C58.1719,149.8125 57.2031,147.875 57.2031,145.9219 C57.2031,143.5313 58.6875,142.2656 60.3281,142.2656 C62.3438,142.2656 62.5625,143.7813 62.7344,144.875 L64.1563,144.6875 C64.0625,144.1094 63.9844,143.5313 63.9844,142.5625 C63.9844,141.8906 64.0313,141.3438 64.0625,140.9219 L62.6563,140.9219 L62.5469,141.875 C61.9531,141.3438 61.3125,140.7969 60.0938,140.7969 C58.0469,140.7969 55.6406,142.625 55.6406,145.9375 C55.6406,148.875 57.4063,151.2656 60.4063,151.2656 C62.8438,151.2656 64.5469,149.6406 65.1406,149.0625 L64.1563,147.9688 Z " fill="#D9D3D0"/><text fill="#D9D3D0" font-family="Verdana" font-size="14" lengthAdjust="spacing" textLength="78" x="78.25" y="150.8467">invalid_year</text><line style="stroke:#D9D3D0;stroke-width:1.0;" x1="13" x2="194" y1="160" y2="160"/><line style="stroke:#D9D3D0;stroke-width:1.0;" x1="13" x2="194" y1="168" y2="168"/><ellipse cx="23" cy="181.6484" fill="#003153" rx="3" ry="3" style="stroke:#D9D3D0;stroke-width:1.0;"/><text fill="#D9D3D0" font-family="Verdana" font-size="14" lengthAdjust="spacing" textLength="159" x="30" y="184.9951">invalid_year(std::string)</text></g><!--MD5=[d10449be8252df25eb91544c9a005006]
@startuml

!theme blueprint



/' Objects '/

class invalid_day {
	+invalid_day(std::string)
}


class invalid_month {
	+invalid_month(std::string)
}


class invalid_year {
	+invalid_year(std::string)
}





/' Inheritance relationships '/




/' Aggregation relationships '/





/' Nested objects '/



@enduml

@startuml






<style>
  root {
    BackgroundColor #003153
    FontColor #D9D3D0
    FontName Verdana
    HyperLinkColor #D9D3D0
    LineColor #D9D3D0
    LineThickness 1
    Margin 5
  }
  caption {
    LineThickness 0
  }
  footer {
    LineThickness 0
  }
  header {
    LineThickness 0
  }
  node {
    MaximumWidth 300
  }
  title {
    FontSize 22
    LineThickness 0
  }
</style>

skinparam ArrowLollipopColor #D9D3D0
skinparam BackgroundColor #003153
skinparam DefaultFontName Verdana
skinparam DefaultMonospacedFontName Courier
skinparam LifelineStrategy nosolid
skinparam ParticipantPadding 10
skinparam SequenceLifeLineBorderColor #D9D3D0
skinparam Shadowing false
skinparam UseBetaStyle true

skinparam Activity {
  BackgroundColor #003153
  BarColor #D9D3D0
  BorderColor #D9D3D0
  FontColor #D9D3D0
  FontName Verdana
}
skinparam Boundary {
  FontColor #D9D3D0
}
skinparam Box {
  Padding 5
}
skinparam CircledCharacter {
  FontColor #D9D3D0
  FontName Courier
  Radius 9
}
skinparam Class {
  BackgroundColor #003153
  BorderColor #D9D3D0
  FontColor #D9D3D0
  FontName Verdana
}
skinparam ClassAttribute {
  FontColor #D9D3D0
  FontName Verdana
}
skinparam ClassStereotype {
  FontColor #D9D3D0
  FontName Verdana
}
skinparam Footer {
  FontColor #D9D3D0
  FontName Verdana
}
skinparam Header {
  FontColor #D9D3D0
  FontName Verdana
}
skinparam Hyperlink {
  Color #D9D3D0
}
skinparam IconPackage {
  Color #D9D3D0
  BackgroundColor #003153
}
skinparam IconPrivate {
  Color #D9D3D0
  BackgroundColor #003153
}
skinparam IconProtected {
  Color #D9D3D0
  BackgroundColor #003153
}
skinparam IconPublic {
  Color #D9D3D0
  BackgroundColor #003153
}
skinparam Note {
  FontColor #D9D3D0
  FontName Verdana
}
skinparam Object {
  BorderColor #D9D3D0
}
skinparam Package {
  BorderColor #D9D3D0
  FontColor #D9D3D0
  FontName Verdana
}
skinparam State {
  BackgroundColor #003153
  BorderColor #D9D3D0
}
skinparam StereotypeA {
  BackgroundColor #003153
  BorderColor #D9D3D0
}
skinparam StereotypeC {
  BackgroundColor #003153
  BorderColor #D9D3D0
}
skinparam StereotypeE {
  BackgroundColor #003153
  BorderColor #D9D3D0
}
skinparam StereotypeI {
  BackgroundColor #003153
  BorderColor #D9D3D0
}
skinparam StereotypeN {
  BackgroundColor #003153
  BorderColor #D9D3D0
}
skinparam UseCaseStereoType {
  FontColor #D9D3D0
  FontName Verdana
}




class invalid_day {
	+invalid_day(std::string)
}


class invalid_month {
	+invalid_month(std::string)
}


class invalid_year {
	+invalid_year(std::string)
}

















@enduml

PlantUML version 1.2022.7(Mon Aug 22 13:01:30 EDT 2022)
(GPL source distribution)
Java Runtime: OpenJDK Runtime Environment
JVM: OpenJDK 64-Bit Server VM
Default Encoding: UTF-8
Language: en
Country: null
--></g></svg>