<?xml version="1.0" encoding="us-ascii" standalone="no"?><svg xmlns="http://www.w3.org/2000/svg" xmlns:xlink="http://www.w3.org/1999/xlink" contentStyleType="text/css" height="365px" preserveAspectRatio="none" style="width:372px;height:365px;background:#FFFFFF;" version="1.1" viewBox="0 0 372 365" width="372px" zoomAndPan="magnify"><defs/><g><!--class candy--><g id="elem_candy"><rect codeLine="8" fill="#F1F1F1" height="162.0781" id="candy" rx="2.5" ry="2.5" style="stroke:#181818;stroke-width:0.5;" width="317" x="24" y="7"/><ellipse cx="157.25" cy="23" fill="#ADD1B2" rx="11" ry="11" style="stroke:#181818;stroke-width:1.0;"/><path d="M159.5938,18.6719 C158.6563,18.2344 158.0625,18.0938 157.1875,18.0938 C154.5625,18.0938 152.5625,20.1719 152.5625,22.8906 L152.5625,24.0156 C152.5625,26.5938 154.6719,28.4844 157.5625,28.4844 C158.7813,28.4844 159.9375,28.1875 160.6875,27.6406 C161.2656,27.2344 161.5938,26.7813 161.5938,26.3906 C161.5938,25.9375 161.2031,25.5469 160.7344,25.5469 C160.5156,25.5469 160.3125,25.625 160.125,25.8125 C159.6719,26.2969 159.6719,26.2969 159.4844,26.3906 C159.0625,26.6563 158.375,26.7813 157.6094,26.7813 C155.5625,26.7813 154.2656,25.6875 154.2656,23.9844 L154.2656,22.8906 C154.2656,21.1094 155.5156,19.7969 157.25,19.7969 C157.8281,19.7969 158.4375,19.9531 158.9063,20.2031 C159.3906,20.4844 159.5625,20.7031 159.6563,21.1094 C159.7188,21.5156 159.75,21.6406 159.8906,21.7656 C160.0313,21.9063 160.2656,22.0156 160.4844,22.0156 C160.75,22.0156 161.0156,21.875 161.1875,21.6563 C161.2969,21.5 161.3281,21.3125 161.3281,20.8906 L161.3281,19.4688 C161.3281,19.0313 161.3125,18.9063 161.2188,18.75 C161.0625,18.4844 160.7813,18.3438 160.4844,18.3438 C160.1875,18.3438 159.9844,18.4375 159.7656,18.75 L159.5938,18.6719 Z " fill="#000000"/><text fill="#000000" font-family="sans-serif" font-size="14" lengthAdjust="spacing" textLength="42" x="177.75" y="27.8467">candy</text><line style="stroke:#181818;stroke-width:0.5;" x1="25" x2="340" y1="39" y2="39"/><text fill="#000000" font-family="sans-serif" font-size="14" lengthAdjust="spacing" textLength="127" x="30" y="55.9951">-color : colorType</text><text fill="#000000" font-family="sans-serif" font-size="14" lengthAdjust="spacing" textLength="137" x="30" y="72.292">-flavor : flavorType</text><line style="stroke:#181818;stroke-width:0.5;" x1="25" x2="340" y1="79.5938" y2="79.5938"/><text fill="#000000" font-family="sans-serif" font-size="14" lengthAdjust="spacing" textLength="305" x="30" y="96.5889">+candy(flavorType flavor, colorType color)</text><text fill="#000000" font-family="sans-serif" font-size="14" lengthAdjust="spacing" textLength="117" x="30" y="112.8857">+getColor() : int</text><text fill="#000000" font-family="sans-serif" font-size="14" lengthAdjust="spacing" textLength="122" x="30" y="129.1826">+getFlavor() : int</text><text fill="#000000" font-family="sans-serif" font-size="14" lengthAdjust="spacing" textLength="237" x="30" y="145.4795">+setColor(colorType color) : void</text><text fill="#000000" font-family="sans-serif" font-size="14" lengthAdjust="spacing" textLength="252" x="30" y="161.7764">+setFlavor(flavorType flavor) : void</text></g><!--class colorType--><g id="elem_colorType"><rect codeLine="19" fill="#F1F1F1" height="129.4844" id="colorType" rx="2.5" ry="2.5" style="stroke:#181818;stroke-width:0.5;" width="155" x="7" y="229"/><ellipse cx="44.95" cy="245" fill="#EB937F" rx="11" ry="11" style="stroke:#181818;stroke-width:1.0;"/><path d="M43.7469,245.875 L45.2,245.875 L45.2,245.9844 C45.2,246.3906 45.2313,246.5469 45.3094,246.7031 C45.4656,246.9531 45.7469,247.1094 46.0438,247.1094 C46.2938,247.1094 46.5594,246.9688 46.7156,246.75 C46.8406,246.5938 46.8719,246.4375 46.8719,245.9844 L46.8719,244.0625 C46.8719,243.9063 46.8719,243.8594 46.8563,243.7031 C46.7938,243.2344 46.4813,242.9219 46.0281,242.9219 C45.7781,242.9219 45.5125,243.0625 45.3406,243.2813 C45.2313,243.4531 45.2,243.6094 45.2,244.0625 L45.2,244.1875 L43.7469,244.1875 L43.7469,241.7813 L47.7313,241.7813 L47.7313,242.6406 C47.7313,243.0469 47.7625,243.2188 47.8406,243.375 C48.0125,243.625 48.2938,243.7813 48.575,243.7813 C48.8406,243.7813 49.1063,243.6406 49.2781,243.4219 C49.3875,243.25 49.4188,243.1094 49.4188,242.6406 L49.4188,240.0938 L41.7938,240.0938 C41.3563,240.0938 41.2313,240.1094 41.075,240.2031 C40.825,240.3594 40.6688,240.6563 40.6688,240.9375 C40.6688,241.2188 40.8094,241.4688 41.0281,241.6406 C41.1844,241.75 41.3719,241.7813 41.7938,241.7813 L42.0438,241.7813 L42.0438,248.2969 L41.7938,248.2969 C41.3875,248.2969 41.2313,248.3125 41.075,248.4219 C40.825,248.5938 40.6688,248.8594 40.6688,249.1563 C40.6688,249.4219 40.8094,249.6719 41.0281,249.8281 C41.1688,249.9531 41.4031,250 41.7938,250 L49.7938,250 L49.7938,247.4219 C49.7938,246.9844 49.7625,246.8438 49.6844,246.6875 C49.5125,246.4375 49.2313,246.2813 48.95,246.2813 C48.6844,246.2813 48.4188,246.3906 48.2469,246.6406 C48.1375,246.7969 48.1063,246.9375 48.1063,247.4219 L48.1063,248.2969 L43.7469,248.2969 L43.7469,245.875 Z " fill="#000000"/><text fill="#000000" font-family="sans-serif" font-size="14" lengthAdjust="spacing" textLength="72" x="64.05" y="249.8467">colorType</text><line style="stroke:#181818;stroke-width:0.5;" x1="8" x2="161" y1="261" y2="261"/><text fill="#000000" font-family="sans-serif" font-size="14" lengthAdjust="spacing" textLength="123" x="13" y="277.9951">AMETHYST_HAZE</text><text fill="#000000" font-family="sans-serif" font-size="14" lengthAdjust="spacing" textLength="83" x="13" y="294.292">AZURE_SKY</text><text fill="#000000" font-family="sans-serif" font-size="14" lengthAdjust="spacing" textLength="110" x="13" y="310.5889">EMERALD_MIST</text><text fill="#000000" font-family="sans-serif" font-size="14" lengthAdjust="spacing" textLength="143" x="13" y="326.8857">GOLDENROD_GLOW</text><text fill="#000000" font-family="sans-serif" font-size="14" lengthAdjust="spacing" textLength="119" x="13" y="343.1826">SCARLET_BLAZE</text><line style="stroke:#181818;stroke-width:0.5;" x1="8" x2="161" y1="350.4844" y2="350.4844"/></g><!--class flavorType--><g id="elem_flavorType"><rect codeLine="28" fill="#F1F1F1" height="129.4844" id="flavorType" rx="2.5" ry="2.5" style="stroke:#181818;stroke-width:0.5;" width="168" x="197.5" y="229"/><ellipse cx="239.05" cy="245" fill="#EB937F" rx="11" ry="11" style="stroke:#181818;stroke-width:1.0;"/><path d="M237.8469,245.875 L239.3,245.875 L239.3,245.9844 C239.3,246.3906 239.3313,246.5469 239.4094,246.7031 C239.5656,246.9531 239.8469,247.1094 240.1438,247.1094 C240.3938,247.1094 240.6594,246.9688 240.8156,246.75 C240.9406,246.5938 240.9719,246.4375 240.9719,245.9844 L240.9719,244.0625 C240.9719,243.9063 240.9719,243.8594 240.9563,243.7031 C240.8938,243.2344 240.5813,242.9219 240.1281,242.9219 C239.8781,242.9219 239.6125,243.0625 239.4406,243.2813 C239.3313,243.4531 239.3,243.6094 239.3,244.0625 L239.3,244.1875 L237.8469,244.1875 L237.8469,241.7813 L241.8313,241.7813 L241.8313,242.6406 C241.8313,243.0469 241.8625,243.2188 241.9406,243.375 C242.1125,243.625 242.3938,243.7813 242.675,243.7813 C242.9406,243.7813 243.2063,243.6406 243.3781,243.4219 C243.4875,243.25 243.5188,243.1094 243.5188,242.6406 L243.5188,240.0938 L235.8938,240.0938 C235.4563,240.0938 235.3313,240.1094 235.175,240.2031 C234.925,240.3594 234.7688,240.6563 234.7688,240.9375 C234.7688,241.2188 234.9094,241.4688 235.1281,241.6406 C235.2844,241.75 235.4719,241.7813 235.8938,241.7813 L236.1438,241.7813 L236.1438,248.2969 L235.8938,248.2969 C235.4875,248.2969 235.3313,248.3125 235.175,248.4219 C234.925,248.5938 234.7688,248.8594 234.7688,249.1563 C234.7688,249.4219 234.9094,249.6719 235.1281,249.8281 C235.2688,249.9531 235.5031,250 235.8938,250 L243.8938,250 L243.8938,247.4219 C243.8938,246.9844 243.8625,246.8438 243.7844,246.6875 C243.6125,246.4375 243.3313,246.2813 243.05,246.2813 C242.7844,246.2813 242.5188,246.3906 242.3469,246.6406 C242.2375,246.7969 242.2063,246.9375 242.2063,247.4219 L242.2063,248.2969 L237.8469,248.2969 L237.8469,245.875 Z " fill="#000000"/><text fill="#000000" font-family="sans-serif" font-size="14" lengthAdjust="spacing" textLength="77" x="258.95" y="249.8467">flavorType</text><line style="stroke:#181818;stroke-width:0.5;" x1="198.5" x2="364.5" y1="261" y2="261"/><text fill="#000000" font-family="sans-serif" font-size="14" lengthAdjust="spacing" textLength="113" x="203.5" y="277.9951">CITRUS_SPLASH</text><text fill="#000000" font-family="sans-serif" font-size="14" lengthAdjust="spacing" textLength="39" x="203.5" y="294.292">COLA</text><text fill="#000000" font-family="sans-serif" font-size="14" lengthAdjust="spacing" textLength="117" x="203.5" y="310.5889">COTTON_CANDY</text><text fill="#000000" font-family="sans-serif" font-size="14" lengthAdjust="spacing" textLength="104" x="203.5" y="326.8857">PAPAYA_BLISS</text><text fill="#000000" font-family="sans-serif" font-size="14" lengthAdjust="spacing" textLength="156" x="203.5" y="343.1826">WATERMELON_BURST</text><line style="stroke:#181818;stroke-width:0.5;" x1="198.5" x2="364.5" y1="350.4844" y2="350.4844"/></g><!--reverse link candy to colorType--><g id="link_candy_colorType"><path codeLine="47" d="M138.7015,179.9477 C129.1675,199.7457 124.289,209.877 115.188,228.775 " fill="none" id="candy-backto-colorType" style="stroke:#181818;stroke-width:1.0;"/><polygon fill="#181818" points="143.908,169.136,137.7009,172.8063,138.7015,179.9477,144.9086,176.2773,143.908,169.136" style="stroke:#181818;stroke-width:1.0;"/></g><!--reverse link candy to flavorType--><g id="link_candy_flavorType"><path codeLine="50" d="M226.7348,179.9267 C236.3668,199.7247 241.305,209.877 250.499,228.775 " fill="none" id="candy-backto-flavorType" style="stroke:#181818;stroke-width:1.0;"/><polygon fill="#181818" points="221.485,169.136,220.513,176.2813,226.7348,179.9267,227.7068,172.7814,221.485,169.136" style="stroke:#181818;stroke-width:1.0;"/></g><!--SRC=[RP9HRu8m58MVwQ_ecxhDkEUzLUYKh82X9KPVICKEks4nj9gunV- -0efa6m_DxRbVpsbpqPzI7NZ5zz0jkDR8c4fkZaRuMQce_1Bm6TJVP02ZpOV8Z8Q32G1PpSACg-qPVWFdiQc6xmK_bHKx7mHiooUObSLLQQeHSCPD0L_kBQkrk1Nl5jOr5yQjeU78TgGohVJQ83rDtx3VOPOubNBR8jTZV-xOKHVxJA6E-zwTxTDGWDbyHLawHsjij-ianYbzMm471pX6n4i3dpBWp2BYuJ2El7H6eYLmg8jYWbaw9VMvphiNRyrTdyK9JUc283gtsuYWUcKi2bCNXPvDMQ05MY5hurCAd2LYE0umiVrf4jlS2xYDnrSxKKd3LIPW9GfkPAdqJXxQWRKColDAv4th7wOTvyDut1jDN-tDfaiDXJPY2ylkt_W1]--></g></svg>