<?xml version="1.0" encoding="us-ascii" standalone="no"?><svg xmlns="http://www.w3.org/2000/svg" xmlns:xlink="http://www.w3.org/1999/xlink" contentStyleType="text/css" height="707px" preserveAspectRatio="none" style="width:772px;height:707px;background:#FFFFFF;" version="1.1" viewBox="0 0 772 707" width="772px" zoomAndPan="magnify"><defs/><g><!--class burger--><g id="elem_burger"><rect codeLine="7" fill="#F1F1F1" height="455.4219" id="burger" rx="2.5" ry="2.5" style="stroke:#181818;stroke-width:0.5;" width="661" x="43.5" y="7"/><ellipse cx="345.75" cy="23" fill="#ADD1B2" rx="11" ry="11" style="stroke:#181818;stroke-width:1.0;"/><path d="M348.0938,18.6719 C347.1563,18.2344 346.5625,18.0938 345.6875,18.0938 C343.0625,18.0938 341.0625,20.1719 341.0625,22.8906 L341.0625,24.0156 C341.0625,26.5938 343.1719,28.4844 346.0625,28.4844 C347.2813,28.4844 348.4375,28.1875 349.1875,27.6406 C349.7656,27.2344 350.0938,26.7813 350.0938,26.3906 C350.0938,25.9375 349.7031,25.5469 349.2344,25.5469 C349.0156,25.5469 348.8125,25.625 348.625,25.8125 C348.1719,26.2969 348.1719,26.2969 347.9844,26.3906 C347.5625,26.6563 346.875,26.7813 346.1094,26.7813 C344.0625,26.7813 342.7656,25.6875 342.7656,23.9844 L342.7656,22.8906 C342.7656,21.1094 344.0156,19.7969 345.75,19.7969 C346.3281,19.7969 346.9375,19.9531 347.4063,20.2031 C347.8906,20.4844 348.0625,20.7031 348.1563,21.1094 C348.2188,21.5156 348.25,21.6406 348.3906,21.7656 C348.5313,21.9063 348.7656,22.0156 348.9844,22.0156 C349.25,22.0156 349.5156,21.875 349.6875,21.6563 C349.7969,21.5 349.8281,21.3125 349.8281,20.8906 L349.8281,19.4688 C349.8281,19.0313 349.8125,18.9063 349.7188,18.75 C349.5625,18.4844 349.2813,18.3438 348.9844,18.3438 C348.6875,18.3438 348.4844,18.4375 348.2656,18.75 L348.0938,18.6719 Z " fill="#000000"/><text fill="#000000" font-family="sans-serif" font-size="14" lengthAdjust="spacing" textLength="48" x="366.25" y="27.8467">burger</text><line style="stroke:#181818;stroke-width:0.5;" x1="44.5" x2="703.5" y1="39" y2="39"/><text fill="#000000" font-family="sans-serif" font-size="14" lengthAdjust="spacing" textLength="90" x="49.5" y="55.9951">-isVeg : bool</text><text fill="#000000" font-family="sans-serif" font-size="14" lengthAdjust="spacing" textLength="109" x="49.5" y="72.292">-bun : bunType</text><text fill="#000000" font-family="sans-serif" font-size="14" lengthAdjust="spacing" textLength="157" x="49.5" y="88.5889">-cheese : cheeseType</text><text fill="#000000" font-family="sans-serif" font-size="14" lengthAdjust="spacing" textLength="228" x="49.5" y="104.8857">-condiments : condimentType[]</text><text fill="#000000" font-family="sans-serif" font-size="14" lengthAdjust="spacing" textLength="157" x="49.5" y="121.1826">-numCondiments : int</text><text fill="#000000" font-family="sans-serif" font-size="14" lengthAdjust="spacing" textLength="121" x="49.5" y="137.4795">-numPatties : int</text><text fill="#000000" font-family="sans-serif" font-size="14" lengthAdjust="spacing" textLength="163" x="49.5" y="153.7764">-protein : proteinType</text><text fill="#000000" font-family="sans-serif" font-size="14" lengthAdjust="spacing" textLength="188" x="49.5" y="170.0732">-toppings : toppingType[]</text><text fill="#000000" font-family="sans-serif" font-size="14" lengthAdjust="spacing" textLength="137" x="49.5" y="186.3701">-numToppings : int</text><line style="stroke:#181818;stroke-width:0.5;" x1="44.5" x2="703.5" y1="193.6719" y2="193.6719"/><text fill="#000000" font-family="sans-serif" font-size="14" lengthAdjust="spacing" textLength="649" x="49.5" y="210.667">+burger(proteinType, condimentType[],int, toppingType[], int, bunType, cheeseType, int)</text><text fill="#000000" font-family="sans-serif" font-size="14" lengthAdjust="spacing" textLength="167" x="49.5" y="226.9639">+isVeggie() const: bool</text><text fill="#000000" font-family="sans-serif" font-size="14" lengthAdjust="spacing" textLength="184" x="49.5" y="243.2607">+getPrice() const: double</text><text fill="#000000" font-family="sans-serif" font-size="14" lengthAdjust="spacing" textLength="189" x="49.5" y="259.5576">+getBun() const: bunType</text><text fill="#000000" font-family="sans-serif" font-size="14" lengthAdjust="spacing" textLength="239" x="49.5" y="275.8545">+getCheese() const: cheeseType</text><text fill="#000000" font-family="sans-serif" font-size="14" lengthAdjust="spacing" textLength="202" x="49.5" y="292.1514">+getNumPatties() const: int</text><text fill="#000000" font-family="sans-serif" font-size="14" lengthAdjust="spacing" textLength="242" x="49.5" y="308.4482">+getProtein() const: proteinType</text><text fill="#000000" font-family="sans-serif" font-size="14" lengthAdjust="spacing" textLength="261" x="49.5" y="324.7451">+getCondiments() const: std::string</text><text fill="#000000" font-family="sans-serif" font-size="14" lengthAdjust="spacing" textLength="241" x="49.5" y="341.042">+getToppings() const: std::string</text><text fill="#000000" font-family="sans-serif" font-size="14" lengthAdjust="spacing" textLength="207" x="49.5" y="357.3389">+tostring() const: std::string</text><text fill="#000000" font-family="sans-serif" font-size="14" lengthAdjust="spacing" textLength="177" x="49.5" y="373.6357">+setBun(bunType) : void</text><text fill="#000000" font-family="sans-serif" font-size="14" lengthAdjust="spacing" textLength="227" x="49.5" y="389.9326">+setCheese(cheeseType) : void</text><text fill="#000000" font-family="sans-serif" font-size="14" lengthAdjust="spacing" textLength="326" x="49.5" y="406.2295">+setCondiments(condimentType[], int) : void</text><text fill="#000000" font-family="sans-serif" font-size="14" lengthAdjust="spacing" textLength="190" x="49.5" y="422.5264">+setNumPatties(int) : void</text><text fill="#000000" font-family="sans-serif" font-size="14" lengthAdjust="spacing" textLength="230" x="49.5" y="438.8232">+setProtein(proteinType) : void</text><text fill="#000000" font-family="sans-serif" font-size="14" lengthAdjust="spacing" textLength="286" x="49.5" y="455.1201">+setToppings(toppingType[], int) : void</text></g><!--class bunType--><g id="elem_bunType"><rect codeLine="36" fill="#F1F1F1" height="162.0781" id="bunType" rx="2.5" ry="2.5" style="stroke:#181818;stroke-width:0.5;" width="104" x="7" y="530"/><ellipse cx="26.05" cy="546" fill="#EB937F" rx="11" ry="11" style="stroke:#181818;stroke-width:1.0;"/><path d="M24.8469,546.875 L26.3,546.875 L26.3,546.9844 C26.3,547.3906 26.3313,547.5469 26.4094,547.7031 C26.5656,547.9531 26.8469,548.1094 27.1438,548.1094 C27.3938,548.1094 27.6594,547.9688 27.8156,547.75 C27.9406,547.5938 27.9719,547.4375 27.9719,546.9844 L27.9719,545.0625 C27.9719,544.9063 27.9719,544.8594 27.9563,544.7031 C27.8938,544.2344 27.5813,543.9219 27.1281,543.9219 C26.8781,543.9219 26.6125,544.0625 26.4406,544.2813 C26.3313,544.4531 26.3,544.6094 26.3,545.0625 L26.3,545.1875 L24.8469,545.1875 L24.8469,542.7813 L28.8313,542.7813 L28.8313,543.6406 C28.8313,544.0469 28.8625,544.2188 28.9406,544.375 C29.1125,544.625 29.3938,544.7813 29.675,544.7813 C29.9406,544.7813 30.2063,544.6406 30.3781,544.4219 C30.4875,544.25 30.5188,544.1094 30.5188,543.6406 L30.5188,541.0938 L22.8938,541.0938 C22.4563,541.0938 22.3313,541.1094 22.175,541.2031 C21.925,541.3594 21.7688,541.6563 21.7688,541.9375 C21.7688,542.2188 21.9094,542.4688 22.1281,542.6406 C22.2844,542.75 22.4719,542.7813 22.8938,542.7813 L23.1438,542.7813 L23.1438,549.2969 L22.8938,549.2969 C22.4875,549.2969 22.3313,549.3125 22.175,549.4219 C21.925,549.5938 21.7688,549.8594 21.7688,550.1563 C21.7688,550.4219 21.9094,550.6719 22.1281,550.8281 C22.2688,550.9531 22.5031,551 22.8938,551 L30.8938,551 L30.8938,548.4219 C30.8938,547.9844 30.8625,547.8438 30.7844,547.6875 C30.6125,547.4375 30.3313,547.2813 30.05,547.2813 C29.7844,547.2813 29.5188,547.3906 29.3469,547.6406 C29.2375,547.7969 29.2063,547.9375 29.2063,548.4219 L29.2063,549.2969 L24.8469,549.2969 L24.8469,546.875 Z " fill="#000000"/><text fill="#000000" font-family="sans-serif" font-size="14" lengthAdjust="spacing" textLength="63" x="40.95" y="550.8467">bunType</text><line style="stroke:#181818;stroke-width:0.5;" x1="8" x2="110" y1="562" y2="562"/><text fill="#000000" font-family="sans-serif" font-size="14" lengthAdjust="spacing" textLength="64" x="13" y="578.9951">BRIOCHE</text><text fill="#000000" font-family="sans-serif" font-size="14" lengthAdjust="spacing" textLength="46" x="13" y="595.292">ONION</text><text fill="#000000" font-family="sans-serif" font-size="14" lengthAdjust="spacing" textLength="28" x="13" y="611.5889">RYE</text><text fill="#000000" font-family="sans-serif" font-size="14" lengthAdjust="spacing" textLength="58" x="13" y="627.8857">SESAME</text><text fill="#000000" font-family="sans-serif" font-size="14" lengthAdjust="spacing" textLength="52" x="13" y="644.1826">WHEAT</text><text fill="#000000" font-family="sans-serif" font-size="14" lengthAdjust="spacing" textLength="50" x="13" y="660.4795">NOBUN</text><text fill="#000000" font-family="sans-serif" font-size="14" lengthAdjust="spacing" textLength="92" x="13" y="676.7764">GLUTENFREE</text><line style="stroke:#181818;stroke-width:0.5;" x1="8" x2="110" y1="684.0781" y2="684.0781"/></g><!--class cheeseType--><g id="elem_cheeseType"><rect codeLine="47" fill="#F1F1F1" height="145.7813" id="cheeseType" rx="2.5" ry="2.5" style="stroke:#181818;stroke-width:0.5;" width="119" x="146.5" y="538"/><ellipse cx="161.5" cy="554" fill="#EB937F" rx="11" ry="11" style="stroke:#181818;stroke-width:1.0;"/><path d="M160.2969,554.875 L161.75,554.875 L161.75,554.9844 C161.75,555.3906 161.7813,555.5469 161.8594,555.7031 C162.0156,555.9531 162.2969,556.1094 162.5938,556.1094 C162.8438,556.1094 163.1094,555.9688 163.2656,555.75 C163.3906,555.5938 163.4219,555.4375 163.4219,554.9844 L163.4219,553.0625 C163.4219,552.9063 163.4219,552.8594 163.4063,552.7031 C163.3438,552.2344 163.0313,551.9219 162.5781,551.9219 C162.3281,551.9219 162.0625,552.0625 161.8906,552.2813 C161.7813,552.4531 161.75,552.6094 161.75,553.0625 L161.75,553.1875 L160.2969,553.1875 L160.2969,550.7813 L164.2813,550.7813 L164.2813,551.6406 C164.2813,552.0469 164.3125,552.2188 164.3906,552.375 C164.5625,552.625 164.8438,552.7813 165.125,552.7813 C165.3906,552.7813 165.6563,552.6406 165.8281,552.4219 C165.9375,552.25 165.9688,552.1094 165.9688,551.6406 L165.9688,549.0938 L158.3438,549.0938 C157.9063,549.0938 157.7813,549.1094 157.625,549.2031 C157.375,549.3594 157.2188,549.6563 157.2188,549.9375 C157.2188,550.2188 157.3594,550.4688 157.5781,550.6406 C157.7344,550.75 157.9219,550.7813 158.3438,550.7813 L158.5938,550.7813 L158.5938,557.2969 L158.3438,557.2969 C157.9375,557.2969 157.7813,557.3125 157.625,557.4219 C157.375,557.5938 157.2188,557.8594 157.2188,558.1563 C157.2188,558.4219 157.3594,558.6719 157.5781,558.8281 C157.7188,558.9531 157.9531,559 158.3438,559 L166.3438,559 L166.3438,556.4219 C166.3438,555.9844 166.3125,555.8438 166.2344,555.6875 C166.0625,555.4375 165.7813,555.2813 165.5,555.2813 C165.2344,555.2813 164.9688,555.3906 164.7969,555.6406 C164.6875,555.7969 164.6563,555.9375 164.6563,556.4219 L164.6563,557.2969 L160.2969,557.2969 L160.2969,554.875 Z " fill="#000000"/><text fill="#000000" font-family="sans-serif" font-size="14" lengthAdjust="spacing" textLength="87" x="175.5" y="558.8467">cheeseType</text><line style="stroke:#181818;stroke-width:0.5;" x1="147.5" x2="264.5" y1="570" y2="570"/><text fill="#000000" font-family="sans-serif" font-size="14" lengthAdjust="spacing" textLength="75" x="152.5" y="586.9951">AMERICAN</text><text fill="#000000" font-family="sans-serif" font-size="14" lengthAdjust="spacing" textLength="71" x="152.5" y="603.292">CHEDDAR</text><text fill="#000000" font-family="sans-serif" font-size="14" lengthAdjust="spacing" textLength="82" x="152.5" y="619.5889">COLBYJACK</text><text fill="#000000" font-family="sans-serif" font-size="14" lengthAdjust="spacing" textLength="89" x="152.5" y="635.8857">PEPPERJACK</text><text fill="#000000" font-family="sans-serif" font-size="14" lengthAdjust="spacing" textLength="45" x="152.5" y="652.1826">SWISS</text><text fill="#000000" font-family="sans-serif" font-size="14" lengthAdjust="spacing" textLength="77" x="152.5" y="668.4795">NOCHEESE</text><line style="stroke:#181818;stroke-width:0.5;" x1="147.5" x2="264.5" y1="675.7813" y2="675.7813"/></g><!--class condimentType--><g id="elem_condimentType"><rect codeLine="57" fill="#F1F1F1" height="178.375" id="condimentType" rx="2.5" ry="2.5" style="stroke:#181818;stroke-width:0.5;" width="146" x="301" y="522"/><ellipse cx="316" cy="538" fill="#EB937F" rx="11" ry="11" style="stroke:#181818;stroke-width:1.0;"/><path d="M314.7969,538.875 L316.25,538.875 L316.25,538.9844 C316.25,539.3906 316.2813,539.5469 316.3594,539.7031 C316.5156,539.9531 316.7969,540.1094 317.0938,540.1094 C317.3438,540.1094 317.6094,539.9688 317.7656,539.75 C317.8906,539.5938 317.9219,539.4375 317.9219,538.9844 L317.9219,537.0625 C317.9219,536.9063 317.9219,536.8594 317.9063,536.7031 C317.8438,536.2344 317.5313,535.9219 317.0781,535.9219 C316.8281,535.9219 316.5625,536.0625 316.3906,536.2813 C316.2813,536.4531 316.25,536.6094 316.25,537.0625 L316.25,537.1875 L314.7969,537.1875 L314.7969,534.7813 L318.7813,534.7813 L318.7813,535.6406 C318.7813,536.0469 318.8125,536.2188 318.8906,536.375 C319.0625,536.625 319.3438,536.7813 319.625,536.7813 C319.8906,536.7813 320.1563,536.6406 320.3281,536.4219 C320.4375,536.25 320.4688,536.1094 320.4688,535.6406 L320.4688,533.0938 L312.8438,533.0938 C312.4063,533.0938 312.2813,533.1094 312.125,533.2031 C311.875,533.3594 311.7188,533.6563 311.7188,533.9375 C311.7188,534.2188 311.8594,534.4688 312.0781,534.6406 C312.2344,534.75 312.4219,534.7813 312.8438,534.7813 L313.0938,534.7813 L313.0938,541.2969 L312.8438,541.2969 C312.4375,541.2969 312.2813,541.3125 312.125,541.4219 C311.875,541.5938 311.7188,541.8594 311.7188,542.1563 C311.7188,542.4219 311.8594,542.6719 312.0781,542.8281 C312.2188,542.9531 312.4531,543 312.8438,543 L320.8438,543 L320.8438,540.4219 C320.8438,539.9844 320.8125,539.8438 320.7344,539.6875 C320.5625,539.4375 320.2813,539.2813 320,539.2813 C319.7344,539.2813 319.4688,539.3906 319.2969,539.6406 C319.1875,539.7969 319.1563,539.9375 319.1563,540.4219 L319.1563,541.2969 L314.7969,541.2969 L314.7969,538.875 Z " fill="#000000"/><text fill="#000000" font-family="sans-serif" font-size="14" lengthAdjust="spacing" textLength="114" x="330" y="542.8467">condimentType</text><line style="stroke:#181818;stroke-width:0.5;" x1="302" x2="446" y1="554" y2="554"/><text fill="#000000" font-family="sans-serif" font-size="14" lengthAdjust="spacing" textLength="31" x="307" y="570.9951">BBQ</text><text fill="#000000" font-family="sans-serif" font-size="14" lengthAdjust="spacing" textLength="66" x="307" y="587.292">KETCHUP</text><text fill="#000000" font-family="sans-serif" font-size="14" lengthAdjust="spacing" textLength="42" x="307" y="603.5889">MAYO</text><text fill="#000000" font-family="sans-serif" font-size="14" lengthAdjust="spacing" textLength="70" x="307" y="619.8857">MUSTARD</text><text fill="#000000" font-family="sans-serif" font-size="14" lengthAdjust="spacing" textLength="96" x="307" y="636.1826">PEPPERCORN</text><text fill="#000000" font-family="sans-serif" font-size="14" lengthAdjust="spacing" textLength="59" x="307" y="652.4795">SPECIAL</text><text fill="#000000" font-family="sans-serif" font-size="14" lengthAdjust="spacing" textLength="47" x="307" y="668.7764">STEAK</text><text fill="#000000" font-family="sans-serif" font-size="14" lengthAdjust="spacing" textLength="63" x="307" y="685.0732">NOCOND</text><line style="stroke:#181818;stroke-width:0.5;" x1="302" x2="446" y1="692.375" y2="692.375"/></g><!--class proteinType--><g id="elem_proteinType"><rect codeLine="69" fill="#F1F1F1" height="129.4844" id="proteinType" rx="2.5" ry="2.5" style="stroke:#181818;stroke-width:0.5;" width="122" x="482" y="546.5"/><ellipse cx="497" cy="562.5" fill="#EB937F" rx="11" ry="11" style="stroke:#181818;stroke-width:1.0;"/><path d="M495.7969,563.375 L497.25,563.375 L497.25,563.4844 C497.25,563.8906 497.2813,564.0469 497.3594,564.2031 C497.5156,564.4531 497.7969,564.6094 498.0938,564.6094 C498.3438,564.6094 498.6094,564.4688 498.7656,564.25 C498.8906,564.0938 498.9219,563.9375 498.9219,563.4844 L498.9219,561.5625 C498.9219,561.4063 498.9219,561.3594 498.9063,561.2031 C498.8438,560.7344 498.5313,560.4219 498.0781,560.4219 C497.8281,560.4219 497.5625,560.5625 497.3906,560.7813 C497.2813,560.9531 497.25,561.1094 497.25,561.5625 L497.25,561.6875 L495.7969,561.6875 L495.7969,559.2813 L499.7813,559.2813 L499.7813,560.1406 C499.7813,560.5469 499.8125,560.7188 499.8906,560.875 C500.0625,561.125 500.3438,561.2813 500.625,561.2813 C500.8906,561.2813 501.1563,561.1406 501.3281,560.9219 C501.4375,560.75 501.4688,560.6094 501.4688,560.1406 L501.4688,557.5938 L493.8438,557.5938 C493.4063,557.5938 493.2813,557.6094 493.125,557.7031 C492.875,557.8594 492.7188,558.1563 492.7188,558.4375 C492.7188,558.7188 492.8594,558.9688 493.0781,559.1406 C493.2344,559.25 493.4219,559.2813 493.8438,559.2813 L494.0938,559.2813 L494.0938,565.7969 L493.8438,565.7969 C493.4375,565.7969 493.2813,565.8125 493.125,565.9219 C492.875,566.0938 492.7188,566.3594 492.7188,566.6563 C492.7188,566.9219 492.8594,567.1719 493.0781,567.3281 C493.2188,567.4531 493.4531,567.5 493.8438,567.5 L501.8438,567.5 L501.8438,564.9219 C501.8438,564.4844 501.8125,564.3438 501.7344,564.1875 C501.5625,563.9375 501.2813,563.7813 501,563.7813 C500.7344,563.7813 500.4688,563.8906 500.2969,564.1406 C500.1875,564.2969 500.1563,564.4375 500.1563,564.9219 L500.1563,565.7969 L495.7969,565.7969 L495.7969,563.375 Z " fill="#000000"/><text fill="#000000" font-family="sans-serif" font-size="14" lengthAdjust="spacing" textLength="90" x="511" y="567.3467">proteinType</text><line style="stroke:#181818;stroke-width:0.5;" x1="483" x2="603" y1="578.5" y2="578.5"/><text fill="#000000" font-family="sans-serif" font-size="14" lengthAdjust="spacing" textLength="36" x="488" y="595.4951">BEEF</text><text fill="#000000" font-family="sans-serif" font-size="14" lengthAdjust="spacing" textLength="63" x="488" y="611.792">CHICKEN</text><text fill="#000000" font-family="sans-serif" font-size="14" lengthAdjust="spacing" textLength="40" x="488" y="628.0889">MUSH</text><text fill="#000000" font-family="sans-serif" font-size="14" lengthAdjust="spacing" textLength="56" x="488" y="644.3857">TURKEY</text><text fill="#000000" font-family="sans-serif" font-size="14" lengthAdjust="spacing" textLength="54" x="488" y="660.6826">VEGGIE</text><line style="stroke:#181818;stroke-width:0.5;" x1="483" x2="603" y1="667.9844" y2="667.9844"/></g><!--class toppingType--><g id="elem_toppingType"><rect codeLine="78" fill="#F1F1F1" height="178.375" id="toppingType" rx="2.5" ry="2.5" style="stroke:#181818;stroke-width:0.5;" width="126" x="639" y="522"/><ellipse cx="654" cy="538" fill="#EB937F" rx="11" ry="11" style="stroke:#181818;stroke-width:1.0;"/><path d="M652.7969,538.875 L654.25,538.875 L654.25,538.9844 C654.25,539.3906 654.2813,539.5469 654.3594,539.7031 C654.5156,539.9531 654.7969,540.1094 655.0938,540.1094 C655.3438,540.1094 655.6094,539.9688 655.7656,539.75 C655.8906,539.5938 655.9219,539.4375 655.9219,538.9844 L655.9219,537.0625 C655.9219,536.9063 655.9219,536.8594 655.9063,536.7031 C655.8438,536.2344 655.5313,535.9219 655.0781,535.9219 C654.8281,535.9219 654.5625,536.0625 654.3906,536.2813 C654.2813,536.4531 654.25,536.6094 654.25,537.0625 L654.25,537.1875 L652.7969,537.1875 L652.7969,534.7813 L656.7813,534.7813 L656.7813,535.6406 C656.7813,536.0469 656.8125,536.2188 656.8906,536.375 C657.0625,536.625 657.3438,536.7813 657.625,536.7813 C657.8906,536.7813 658.1563,536.6406 658.3281,536.4219 C658.4375,536.25 658.4688,536.1094 658.4688,535.6406 L658.4688,533.0938 L650.8438,533.0938 C650.4063,533.0938 650.2813,533.1094 650.125,533.2031 C649.875,533.3594 649.7188,533.6563 649.7188,533.9375 C649.7188,534.2188 649.8594,534.4688 650.0781,534.6406 C650.2344,534.75 650.4219,534.7813 650.8438,534.7813 L651.0938,534.7813 L651.0938,541.2969 L650.8438,541.2969 C650.4375,541.2969 650.2813,541.3125 650.125,541.4219 C649.875,541.5938 649.7188,541.8594 649.7188,542.1563 C649.7188,542.4219 649.8594,542.6719 650.0781,542.8281 C650.2188,542.9531 650.4531,543 650.8438,543 L658.8438,543 L658.8438,540.4219 C658.8438,539.9844 658.8125,539.8438 658.7344,539.6875 C658.5625,539.4375 658.2813,539.2813 658,539.2813 C657.7344,539.2813 657.4688,539.3906 657.2969,539.6406 C657.1875,539.7969 657.1563,539.9375 657.1563,540.4219 L657.1563,541.2969 L652.7969,541.2969 L652.7969,538.875 Z " fill="#000000"/><text fill="#000000" font-family="sans-serif" font-size="14" lengthAdjust="spacing" textLength="94" x="668" y="542.8467">toppingType</text><line style="stroke:#181818;stroke-width:0.5;" x1="640" x2="764" y1="554" y2="554"/><text fill="#000000" font-family="sans-serif" font-size="14" lengthAdjust="spacing" textLength="51" x="645" y="570.9951">BACON</text><text fill="#000000" font-family="sans-serif" font-size="14" lengthAdjust="spacing" textLength="87" x="645" y="587.292">GRILLONION</text><text fill="#000000" font-family="sans-serif" font-size="14" lengthAdjust="spacing" textLength="63" x="645" y="603.5889">LETTUCE</text><text fill="#000000" font-family="sans-serif" font-size="14" lengthAdjust="spacing" textLength="84" x="645" y="619.8857">MUSHROOM</text><text fill="#000000" font-family="sans-serif" font-size="14" lengthAdjust="spacing" textLength="50" x="645" y="636.1826">PICKLE</text><text fill="#000000" font-family="sans-serif" font-size="14" lengthAdjust="spacing" textLength="80" x="645" y="652.4795">RAWONION</text><text fill="#000000" font-family="sans-serif" font-size="14" lengthAdjust="spacing" textLength="62" x="645" y="668.7764">TOMATO</text><text fill="#000000" font-family="sans-serif" font-size="14" lengthAdjust="spacing" textLength="50" x="645" y="685.0732">NOTOP</text><line style="stroke:#181818;stroke-width:0.5;" x1="640" x2="764" y1="692.375" y2="692.375"/></g><!--reverse link burger to bunType--><g id="link_burger_bunType"><path codeLine="100" d="M171.2795,471.2076 C154.2765,491.4126 145.137,502.436 129,522 C123.162,529.078 117.108,536.523 111.114,543.962 " fill="none" id="burger-backto-bunType" style="stroke:#181818;stroke-width:1.0;"/><polygon fill="#181818" points="179.006,462.026,172.0822,464.0413,171.2795,471.2076,178.2033,469.1923,179.006,462.026" style="stroke:#181818;stroke-width:1.0;"/></g><!--reverse link burger to cheeseType--><g id="link_burger_cheeseType"><path codeLine="103" d="M267.3656,473.2059 C255.1526,500.4319 248.374,515.542 238.305,537.986 " fill="none" id="burger-backto-cheeseType" style="stroke:#181818;stroke-width:1.0;"/><polygon fill="#181818" points="272.277,462.257,266.1717,466.0943,267.3656,473.2059,273.4709,469.3686,272.277,462.257" style="stroke:#181818;stroke-width:1.0;"/></g><!--reverse link burger to condimentType--><g id="link_burger_condimentType"><path codeLine="106" d="M374,474.257 C374,495.176 374,503.406 374,521.838 " fill="none" id="burger-backto-condimentType" style="stroke:#181818;stroke-width:1.0;"/><polygon fill="#181818" points="374,462.257,370,468.257,374,474.257,378,468.257,374,462.257" style="stroke:#181818;stroke-width:1.0;"/></g><!--reverse link burger to proteinType--><g id="link_burger_proteinType"><path codeLine="109" d="M481.2638,473.1949 C495.0768,503.8049 503.289,522.001 514.201,546.183 " fill="none" id="burger-backto-proteinType" style="stroke:#181818;stroke-width:1.0;"/><polygon fill="#181818" points="476.328,462.257,475.1499,469.3712,481.2638,473.1949,482.4419,466.0807,476.328,462.257" style="stroke:#181818;stroke-width:1.0;"/></g><!--reverse link burger to toppingType--><g id="link_burger_toppingType"><path codeLine="112" d="M580.5074,471.2841 C604.3534,498.5101 619.27,515.542 638.928,537.986 " fill="none" id="burger-backto-toppingType" style="stroke:#181818;stroke-width:1.0;"/><polygon fill="#181818" points="572.601,462.257,573.5452,469.406,580.5074,471.2841,579.5632,464.1351,572.601,462.257" style="stroke:#181818;stroke-width:1.0;"/></g><!--SRC=[TLH1avem63sJNv7RhgtkzkmjObQfI2Z4TPnE3w0PJAlWaD2PjjF_tWyI9BfT3_YHz_A-bvSGzKEMbwpEpjW_PKeHhMkPDre4-wfCvM-1Fo7uFJzWbdyNUwtmmpD2-vQAywOkH8t_8E-ZAHylTQM5BFclYnXZ43Z8ioXr-_hrsrYMUenrTRd8ih13k1lBctx6KGWbJ0t827aJgLv5WQSuhweJzEbU2oaUHwsyqWR0G0IHbcQauDremT0WsexsdbIBt1e4k6pElii04z2q43gkvTvfUgYQ_2ImmMPDwTWn1YpaTxq7TF1Y2L5pZZEjfL032PhYlciNvm0v-M9ZryxklKui0zzmhPdhoWP1fG_JgO8jBmlRaviDUf-ZArE_HvZOBMuztUosCSm7rAIhJ88sk16C_wpamG0slo6sEtXOqVrXwyxF3Tc9-WtM1-raTakuflBs_5w9V-4x4R32wnc03sEM1CnVKkInA60Hyf8Tr2bDoHh-jqjAEF8YDji0j0Wtd4Ol2QM3adDUG0mc9O5FW0kIypb9e63XRFUP-2lanJIEQMBgT1kaQQiCH9gwWcvCdS7P5-IjAFUNcnXvQx9ZyDoad2JpNj9d2RHCO-e798I2KxBgj5aq7vJTezdgKlhI-Wpy5OqwoINo-2PPqHtoNkbY4JYkd52xkSHlireaGHZQt4BA-SQdHYXXR0tcG3g4aOHiBOcpDU6ijSPPtAcRcoieZwAMEYlt0jVYb6a9v_OeB-OkCnnI5BKeEkW_d2TxrNsOJF1JVyVS3Jltp3tYXduFkf_f7UJ4WgwBYOJIue2hwsty3m00]--></g></svg>