<?xml version="1.0" encoding="us-ascii" standalone="no"?><svg xmlns="http://www.w3.org/2000/svg" xmlns:xlink="http://www.w3.org/1999/xlink" contentStyleType="text/css" height="716px" preserveAspectRatio="none" style="width:822px;height:716px;background:#FFFFFF;" version="1.1" viewBox="0 0 822 716" width="822px" zoomAndPan="magnify"><defs/><g><!--class character--><g id="elem_character"><rect codeLine="8" fill="#F1F1F1" height="558.6719" id="character" rx="2.5" ry="2.5" style="stroke:#181818;stroke-width:0.5;" width="808" x="7" y="7"/><ellipse cx="376.75" cy="23" fill="#ADD1B2" rx="11" ry="11" style="stroke:#181818;stroke-width:1.0;"/><path d="M379.5156,18.875 Q379.6719,18.6563 379.8594,18.5469 Q380.0469,18.4375 380.2656,18.4375 Q380.6406,18.4375 380.875,18.6953 Q381.1094,18.9531 381.1094,19.5625 L381.1094,21.0156 Q381.1094,21.625 380.875,21.8906 Q380.6406,22.1563 380.2656,22.1563 Q379.9219,22.1563 379.7188,21.9531 Q379.5156,21.7656 379.4063,21.25 Q379.3594,20.8906 379.1719,20.7031 Q378.8438,20.3281 378.2344,20.1094 Q377.625,19.8906 377,19.8906 Q376.2344,19.8906 375.6016,20.2188 Q374.9688,20.5469 374.4766,21.2969 Q373.9844,22.0469 373.9844,23.0781 L373.9844,24.1719 Q373.9844,25.4063 374.875,26.2266 Q375.7656,27.0469 377.3594,27.0469 Q378.2969,27.0469 378.9531,26.7969 Q379.3438,26.6406 379.7656,26.2031 Q380.0313,25.9375 380.1797,25.8594 Q380.3281,25.7813 380.5313,25.7813 Q380.8594,25.7813 381.1172,26.0391 Q381.375,26.2969 381.375,26.6406 Q381.375,26.9844 381.0313,27.3906 Q380.5313,27.9688 379.7344,28.2969 Q378.6563,28.75 377.3594,28.75 Q375.8438,28.75 374.6406,28.125 Q373.6563,27.625 372.9688,26.5547 Q372.2813,25.4844 372.2813,24.2031 L372.2813,23.0469 Q372.2813,21.7188 372.8984,20.5703 Q373.5156,19.4219 374.6094,18.8047 Q375.7031,18.1875 376.9375,18.1875 Q377.6719,18.1875 378.3203,18.3516 Q378.9688,18.5156 379.5156,18.875 Z " fill="#000000"/><text fill="#000000" font-family="sans-serif" font-size="14" lengthAdjust="spacing" textLength="60" x="397.25" y="28.7285">character</text><line style="stroke:#181818;stroke-width:0.5;" x1="8" x2="814" y1="39" y2="39"/><text fill="#000000" font-family="sans-serif" font-size="14" lengthAdjust="spacing" textLength="79" x="13" y="57.5332">#hp : double</text><text fill="#000000" font-family="sans-serif" font-size="14" lengthAdjust="spacing" textLength="82" x="13" y="75.1426">#mp : double</text><text fill="#000000" font-family="sans-serif" font-size="14" lengthAdjust="spacing" textLength="88" x="13" y="92.752">#dexterity : int</text><text fill="#000000" font-family="sans-serif" font-size="14" lengthAdjust="spacing" textLength="103" x="13" y="110.3613">#endurance : int</text><text fill="#000000" font-family="sans-serif" font-size="14" lengthAdjust="spacing" textLength="62" x="13" y="127.9707">#faith : int</text><text fill="#000000" font-family="sans-serif" font-size="14" lengthAdjust="spacing" textLength="106" x="13" y="145.5801">#intelligence : int</text><text fill="#000000" font-family="sans-serif" font-size="14" lengthAdjust="spacing" textLength="74" x="13" y="163.1895">#speed : int</text><text fill="#000000" font-family="sans-serif" font-size="14" lengthAdjust="spacing" textLength="87" x="13" y="180.7988">#strength : int</text><text fill="#000000" font-family="sans-serif" font-size="14" lengthAdjust="spacing" textLength="117" x="13" y="198.4082">#name : std::string</text><line style="stroke:#181818;stroke-width:0.5;" x1="8" x2="814" y1="205.4844" y2="205.4844"/><text fill="#000000" font-family="sans-serif" font-size="14" lengthAdjust="spacing" textLength="796" x="13" y="224.0176">+character(std::string name, double hp, double mp, int strength, int dexterity, int intelligence, int speed, int endurance, int faith)</text><text fill="#000000" font-family="sans-serif" font-size="14" lengthAdjust="spacing" textLength="111" x="13" y="241.627">+attack() : double</text><text fill="#000000" font-family="sans-serif" font-size="14" lengthAdjust="spacing" textLength="148" x="13" y="259.2363">+getHp() const : double</text><text fill="#000000" font-family="sans-serif" font-size="14" lengthAdjust="spacing" textLength="150" x="13" y="276.8457">+getMp() const : double</text><text fill="#000000" font-family="sans-serif" font-size="14" lengthAdjust="spacing" textLength="158" x="13" y="294.4551">+getDexterity() const : int</text><text fill="#000000" font-family="sans-serif" font-size="14" lengthAdjust="spacing" textLength="172" x="13" y="312.0645">+getEndurance() const : int</text><text fill="#000000" font-family="sans-serif" font-size="14" lengthAdjust="spacing" textLength="135" x="13" y="329.6738">+getFaith() const : int</text><text fill="#000000" font-family="sans-serif" font-size="14" lengthAdjust="spacing" textLength="174" x="13" y="347.2832">+getIntelligence() const : int</text><text fill="#000000" font-family="sans-serif" font-size="14" lengthAdjust="spacing" textLength="144" x="13" y="364.8926">+getSpeed() const : int</text><text fill="#000000" font-family="sans-serif" font-size="14" lengthAdjust="spacing" textLength="157" x="13" y="382.502">+getStrength() const : int</text><text fill="#000000" font-family="sans-serif" font-size="14" lengthAdjust="spacing" textLength="186" x="13" y="400.1113">+getName() const : std::string</text><text fill="#000000" font-family="sans-serif" font-size="14" lengthAdjust="spacing" textLength="139" x="13" y="417.7207">+tostring() : std::string</text><text fill="#000000" font-family="sans-serif" font-size="14" lengthAdjust="spacing" textLength="202" x="13" y="435.3301">+setDexterity(int dexterity) : void</text><text fill="#000000" font-family="sans-serif" font-size="14" lengthAdjust="spacing" textLength="231" x="13" y="452.9395">+setEndurance(int endurance) : void</text><text fill="#000000" font-family="sans-serif" font-size="14" lengthAdjust="spacing" textLength="153" x="13" y="470.5488">+setFaith(int faith) : void</text><text fill="#000000" font-family="sans-serif" font-size="14" lengthAdjust="spacing" textLength="155" x="13" y="488.1582">+setHp(double hp) : void</text><text fill="#000000" font-family="sans-serif" font-size="14" lengthAdjust="spacing" textLength="236" x="13" y="505.7676">+setIntelligence(int intelligence) : void</text><text fill="#000000" font-family="sans-serif" font-size="14" lengthAdjust="spacing" textLength="160" x="13" y="523.377">+setMp(double mp) : void</text><text fill="#000000" font-family="sans-serif" font-size="14" lengthAdjust="spacing" textLength="174" x="13" y="540.9863">+setSpeed(int speed) : void</text><text fill="#000000" font-family="sans-serif" font-size="14" lengthAdjust="spacing" textLength="200" x="13" y="558.5957">+setStrength(int strength) : void</text></g><!--class cleric--><g id="elem_cleric"><rect codeLine="41" fill="#F1F1F1" height="83.2188" id="cleric" rx="2.5" ry="2.5" style="stroke:#181818;stroke-width:0.5;" width="164" x="19" y="626"/><ellipse cx="80.25" cy="642" fill="#ADD1B2" rx="11" ry="11" style="stroke:#181818;stroke-width:1.0;"/><path d="M83.0156,637.875 Q83.1719,637.6563 83.3594,637.5469 Q83.5469,637.4375 83.7656,637.4375 Q84.1406,637.4375 84.375,637.6953 Q84.6094,637.9531 84.6094,638.5625 L84.6094,640.0156 Q84.6094,640.625 84.375,640.8906 Q84.1406,641.1563 83.7656,641.1563 Q83.4219,641.1563 83.2188,640.9531 Q83.0156,640.7656 82.9063,640.25 Q82.8594,639.8906 82.6719,639.7031 Q82.3438,639.3281 81.7344,639.1094 Q81.125,638.8906 80.5,638.8906 Q79.7344,638.8906 79.1016,639.2188 Q78.4688,639.5469 77.9766,640.2969 Q77.4844,641.0469 77.4844,642.0781 L77.4844,643.1719 Q77.4844,644.4063 78.375,645.2266 Q79.2656,646.0469 80.8594,646.0469 Q81.7969,646.0469 82.4531,645.7969 Q82.8438,645.6406 83.2656,645.2031 Q83.5313,644.9375 83.6797,644.8594 Q83.8281,644.7813 84.0313,644.7813 Q84.3594,644.7813 84.6172,645.0391 Q84.875,645.2969 84.875,645.6406 Q84.875,645.9844 84.5313,646.3906 Q84.0313,646.9688 83.2344,647.2969 Q82.1563,647.75 80.8594,647.75 Q79.3438,647.75 78.1406,647.125 Q77.1563,646.625 76.4688,645.5547 Q75.7813,644.4844 75.7813,643.2031 L75.7813,642.0469 Q75.7813,640.7188 76.3984,639.5703 Q77.0156,638.4219 78.1094,637.8047 Q79.2031,637.1875 80.4375,637.1875 Q81.1719,637.1875 81.8203,637.3516 Q82.4688,637.5156 83.0156,637.875 Z " fill="#000000"/><text fill="#000000" font-family="sans-serif" font-size="14" lengthAdjust="spacing" textLength="33" x="100.75" y="647.7285">cleric</text><line style="stroke:#181818;stroke-width:0.5;" x1="20" x2="182" y1="658" y2="658"/><line style="stroke:#181818;stroke-width:0.5;" x1="20" x2="182" y1="666" y2="666"/><text fill="#000000" font-family="sans-serif" font-size="14" lengthAdjust="spacing" textLength="152" x="25" y="684.5332">+cleric(std::string name)</text><text fill="#000000" font-family="sans-serif" font-size="14" lengthAdjust="spacing" textLength="100" x="25" y="702.1426">+heal() : double</text></g><!--class fighter--><g id="elem_fighter"><rect codeLine="47" fill="#F1F1F1" height="83.2188" id="fighter" rx="2.5" ry="2.5" style="stroke:#181818;stroke-width:0.5;" width="171" x="218.5" y="626"/><ellipse cx="279.75" cy="642" fill="#ADD1B2" rx="11" ry="11" style="stroke:#181818;stroke-width:1.0;"/><path d="M282.5156,637.875 Q282.6719,637.6563 282.8594,637.5469 Q283.0469,637.4375 283.2656,637.4375 Q283.6406,637.4375 283.875,637.6953 Q284.1094,637.9531 284.1094,638.5625 L284.1094,640.0156 Q284.1094,640.625 283.875,640.8906 Q283.6406,641.1563 283.2656,641.1563 Q282.9219,641.1563 282.7188,640.9531 Q282.5156,640.7656 282.4063,640.25 Q282.3594,639.8906 282.1719,639.7031 Q281.8438,639.3281 281.2344,639.1094 Q280.625,638.8906 280,638.8906 Q279.2344,638.8906 278.6016,639.2188 Q277.9688,639.5469 277.4766,640.2969 Q276.9844,641.0469 276.9844,642.0781 L276.9844,643.1719 Q276.9844,644.4063 277.875,645.2266 Q278.7656,646.0469 280.3594,646.0469 Q281.2969,646.0469 281.9531,645.7969 Q282.3438,645.6406 282.7656,645.2031 Q283.0313,644.9375 283.1797,644.8594 Q283.3281,644.7813 283.5313,644.7813 Q283.8594,644.7813 284.1172,645.0391 Q284.375,645.2969 284.375,645.6406 Q284.375,645.9844 284.0313,646.3906 Q283.5313,646.9688 282.7344,647.2969 Q281.6563,647.75 280.3594,647.75 Q278.8438,647.75 277.6406,647.125 Q276.6563,646.625 275.9688,645.5547 Q275.2813,644.4844 275.2813,643.2031 L275.2813,642.0469 Q275.2813,640.7188 275.8984,639.5703 Q276.5156,638.4219 277.6094,637.8047 Q278.7031,637.1875 279.9375,637.1875 Q280.6719,637.1875 281.3203,637.3516 Q281.9688,637.5156 282.5156,637.875 Z " fill="#000000"/><text fill="#000000" font-family="sans-serif" font-size="14" lengthAdjust="spacing" textLength="40" x="300.25" y="647.7285">fighter</text><line style="stroke:#181818;stroke-width:0.5;" x1="219.5" x2="388.5" y1="658" y2="658"/><line style="stroke:#181818;stroke-width:0.5;" x1="219.5" x2="388.5" y1="666" y2="666"/><text fill="#000000" font-family="sans-serif" font-size="14" lengthAdjust="spacing" textLength="159" x="224.5" y="684.5332">+fighter(std::string name)</text><text fill="#000000" font-family="sans-serif" font-size="14" lengthAdjust="spacing" textLength="152" x="224.5" y="702.1426">+strongAttack() : double</text></g><!--class magician--><g id="elem_magician"><rect codeLine="53" fill="#F1F1F1" height="83.2188" id="magician" rx="2.5" ry="2.5" style="stroke:#181818;stroke-width:0.5;" width="187" x="424.5" y="626"/><ellipse cx="485.75" cy="642" fill="#ADD1B2" rx="11" ry="11" style="stroke:#181818;stroke-width:1.0;"/><path d="M488.5156,637.875 Q488.6719,637.6563 488.8594,637.5469 Q489.0469,637.4375 489.2656,637.4375 Q489.6406,637.4375 489.875,637.6953 Q490.1094,637.9531 490.1094,638.5625 L490.1094,640.0156 Q490.1094,640.625 489.875,640.8906 Q489.6406,641.1563 489.2656,641.1563 Q488.9219,641.1563 488.7188,640.9531 Q488.5156,640.7656 488.4063,640.25 Q488.3594,639.8906 488.1719,639.7031 Q487.8438,639.3281 487.2344,639.1094 Q486.625,638.8906 486,638.8906 Q485.2344,638.8906 484.6016,639.2188 Q483.9688,639.5469 483.4766,640.2969 Q482.9844,641.0469 482.9844,642.0781 L482.9844,643.1719 Q482.9844,644.4063 483.875,645.2266 Q484.7656,646.0469 486.3594,646.0469 Q487.2969,646.0469 487.9531,645.7969 Q488.3438,645.6406 488.7656,645.2031 Q489.0313,644.9375 489.1797,644.8594 Q489.3281,644.7813 489.5313,644.7813 Q489.8594,644.7813 490.1172,645.0391 Q490.375,645.2969 490.375,645.6406 Q490.375,645.9844 490.0313,646.3906 Q489.5313,646.9688 488.7344,647.2969 Q487.6563,647.75 486.3594,647.75 Q484.8438,647.75 483.6406,647.125 Q482.6563,646.625 481.9688,645.5547 Q481.2813,644.4844 481.2813,643.2031 L481.2813,642.0469 Q481.2813,640.7188 481.8984,639.5703 Q482.5156,638.4219 483.6094,637.8047 Q484.7031,637.1875 485.9375,637.1875 Q486.6719,637.1875 487.3203,637.3516 Q487.9688,637.5156 488.5156,637.875 Z " fill="#000000"/><text fill="#000000" font-family="sans-serif" font-size="14" lengthAdjust="spacing" textLength="56" x="506.25" y="647.7285">magician</text><line style="stroke:#181818;stroke-width:0.5;" x1="425.5" x2="610.5" y1="658" y2="658"/><line style="stroke:#181818;stroke-width:0.5;" x1="425.5" x2="610.5" y1="666" y2="666"/><text fill="#000000" font-family="sans-serif" font-size="14" lengthAdjust="spacing" textLength="175" x="430.5" y="684.5332">+magician(std::string name)</text><text fill="#000000" font-family="sans-serif" font-size="14" lengthAdjust="spacing" textLength="99" x="430.5" y="702.1426">+cast() : double</text></g><!--class rogue--><g id="elem_rogue"><rect codeLine="59" fill="#F1F1F1" height="83.2188" id="rogue" rx="2.5" ry="2.5" style="stroke:#181818;stroke-width:0.5;" width="168" x="647" y="626"/><ellipse cx="708.25" cy="642" fill="#ADD1B2" rx="11" ry="11" style="stroke:#181818;stroke-width:1.0;"/><path d="M711.0156,637.875 Q711.1719,637.6563 711.3594,637.5469 Q711.5469,637.4375 711.7656,637.4375 Q712.1406,637.4375 712.375,637.6953 Q712.6094,637.9531 712.6094,638.5625 L712.6094,640.0156 Q712.6094,640.625 712.375,640.8906 Q712.1406,641.1563 711.7656,641.1563 Q711.4219,641.1563 711.2188,640.9531 Q711.0156,640.7656 710.9063,640.25 Q710.8594,639.8906 710.6719,639.7031 Q710.3438,639.3281 709.7344,639.1094 Q709.125,638.8906 708.5,638.8906 Q707.7344,638.8906 707.1016,639.2188 Q706.4688,639.5469 705.9766,640.2969 Q705.4844,641.0469 705.4844,642.0781 L705.4844,643.1719 Q705.4844,644.4063 706.375,645.2266 Q707.2656,646.0469 708.8594,646.0469 Q709.7969,646.0469 710.4531,645.7969 Q710.8438,645.6406 711.2656,645.2031 Q711.5313,644.9375 711.6797,644.8594 Q711.8281,644.7813 712.0313,644.7813 Q712.3594,644.7813 712.6172,645.0391 Q712.875,645.2969 712.875,645.6406 Q712.875,645.9844 712.5313,646.3906 Q712.0313,646.9688 711.2344,647.2969 Q710.1563,647.75 708.8594,647.75 Q707.3438,647.75 706.1406,647.125 Q705.1563,646.625 704.4688,645.5547 Q703.7813,644.4844 703.7813,643.2031 L703.7813,642.0469 Q703.7813,640.7188 704.3984,639.5703 Q705.0156,638.4219 706.1094,637.8047 Q707.2031,637.1875 708.4375,637.1875 Q709.1719,637.1875 709.8203,637.3516 Q710.4688,637.5156 711.0156,637.875 Z " fill="#000000"/><text fill="#000000" font-family="sans-serif" font-size="14" lengthAdjust="spacing" textLength="37" x="728.75" y="647.7285">rogue</text><line style="stroke:#181818;stroke-width:0.5;" x1="648" x2="814" y1="658" y2="658"/><line style="stroke:#181818;stroke-width:0.5;" x1="648" x2="814" y1="666" y2="666"/><text fill="#000000" font-family="sans-serif" font-size="14" lengthAdjust="spacing" textLength="156" x="653" y="684.5332">+rogue(std::string name)</text><text fill="#000000" font-family="sans-serif" font-size="14" lengthAdjust="spacing" textLength="103" x="653" y="702.1426">+steal() : double</text></g><!--reverse link character to cleric--><g id="link_character_cleric"><path codeLine="70" d="M171.4544,580.3634 C153.0444,602.8734 147.82,609.26 134.44,625.62 " fill="none" id="character-backto-cleric" style="stroke:#181818;stroke-width:1.0;"/><polygon fill="none" points="182.85,566.43,166.8099,576.5649,176.0989,584.162,182.85,566.43" style="stroke:#181818;stroke-width:1.0;"/></g><!--reverse link character to fighter--><g id="link_character_fighter"><path codeLine="73" d="M327.363,583.7539 C321.013,606.2639 320.16,609.26 315.54,625.62 " fill="none" id="character-backto-fighter" style="stroke:#181818;stroke-width:1.0;"/><polygon fill="none" points="332.25,566.43,321.5884,582.1249,333.1376,585.3829,332.25,566.43" style="stroke:#181818;stroke-width:1.0;"/></g><!--reverse link character to magician--><g id="link_character_magician"><path codeLine="76" d="M494.637,583.7539 C500.987,606.2639 501.84,609.26 506.46,625.62 " fill="none" id="character-backto-magician" style="stroke:#181818;stroke-width:1.0;"/><polygon fill="none" points="489.75,566.43,488.8624,585.3829,500.4116,582.1249,489.75,566.43" style="stroke:#181818;stroke-width:1.0;"/></g><!--reverse link character to rogue--><g id="link_character_rogue"><path codeLine="79" d="M658.1202,580.1851 C677.1202,602.6951 682.67,609.26 696.48,625.62 " fill="none" id="character-backto-rogue" style="stroke:#181818;stroke-width:1.0;"/><polygon fill="none" points="646.51,566.43,653.5352,584.0552,662.7053,576.315,646.51,566.43" style="stroke:#181818;stroke-width:1.0;"/></g><!--SRC=[TLJBRjmm33nNNo5W3qdG1kbvqSkYJT0z93ta2xGo8wcnPSFY5dt-Uwc7PMcj70oG76f4qaEvLsCdCOk1V-w5SmV4sPpE24SvscVp6_X7njZT5Vzs-WuI7R-wOqpwJ2ur7PC8C__3thtFthN3RhztH6CLjsA03xmRpwSUk9woEP1fB79A0wjGHw-3dqHWy5TqwOE-DmgiX9G-0NJH1DkTPv6H5s5Gtr0T0b78r-iRlaztKKm1VfqeH2qvp02Fo6CJsUcfODWDbPVhf21TJf5SJOw4WXRFt_DbELHSvokFwFr2q4GVF5aJEHOpQYOy-v6raJJx3RWh1vyR2hDVlNIuxF29VdP1Lkg0JdWfr54wXMCqm_-g8LUEh5A7p_qncYuchPEhP54dnG6kGgb0qaPMQ8rKqxsKP9twc4c62vBu1x9yBy3b9vJRa5F-iRniFRKkuwO5SxDcNlmQH5zAVpt_OfHULZNPJGPoHwiEcoLQcGQXZ3J21gh5QN99uR3DCO_g384WM6zKqcWclaL7gxqGmhxDq0iq93bjflGwvNVfqz_RspGvjecdAMo1fQSj4ehDLHoKca65onjLfAGde3uwFXQl9_iF]--></g></svg>